#!OML:ASF E:\Style6\Style6.ASF
:FULLY-SPECIFIED
:DEGREES
1563
root 0.288469 17.9599 1.72224 12.6936 -3.87121 -4.08053
lowerback 1.4563 -1.72624 3.56658
upperback -9.38534 -1.74743 4.01387
thorax -10.8162 -0.957935 2.51167
lowerneck -10.401 1.99608 4.45819
upperneck 17.7399 3.46582 -8.09046
head 7.36538 1.23502 -3.06255
rclavicle 2.9122e-014 -1.59028e-014
rhumerus 13.234 -32.6404 11.1513
rradius 58.3862
rwrist 32.2193
rhand 28.6276 2.31963
rfingers 7.12502
rthumb 52.469 -17.5033
lclavicle 2.9122e-014 -1.59028e-014
lhumerus -102.852 -58.695 121.033
lradius 96.869
lwrist 37.4938
lhand 7.41311 9.77497
lfingers 7.12502
lthumb 32.6688 36.8445
rfemur -14.5701 2.35282 22.6181
rtibia 19.515
rfoot -11.1406 -9.1056
rtoes -14.7562
lfemur -17.8556 2.34221 -14.6768
ltibia 28.3233
lfoot -13.7611 9.00936
ltoes -21.0391
1564
root 0.295489 17.9593 1.72949 12.6693 -3.83002 -4.01613
lowerback 1.4602 -1.71754 3.53804
upperback -9.37854 -1.74073 3.97673
thorax -10.8105 -0.954049 2.48646
lowerneck -10.2142 1.99255 4.34146
upperneck 17.5386 3.43595 -7.88902
head 7.25927 1.23792 -2.97707
rclavicle 3.18055e-014 -3.97569e-014
rhumerus 13.1272 -32.4871 11.2426
rradius 58.4577
rwrist 32.1598
rhand 28.7301 2.08791
rfingers 7.12502
rthumb 52.5617 -17.6781
lclavicle 3.18055e-014 -3.97569e-014
lhumerus -102.746 -58.6595 120.976
lradius 96.8265
lwrist 37.6725
lhand 7.75718 10.0013
lfingers 7.12502
lthumb 32.9961 37.0024
rfemur -14.5701 2.39266 22.5165
rtibia 19.6145
rfoot -11.2559 -9.11249
rtoes -14.8113
lfemur -17.8473 2.29176 -14.789
ltibia 28.3521
lfoot -13.6992 9.16026
ltoes -21.4593
1565
root 0.302905 17.9575 1.73436 12.6703 -3.77179 -4.04241
lowerback 1.45722 -1.67354 3.61312
upperback -9.36761 -1.67566 3.97853
thorax -10.8002 -0.928514 2.43889
lowerneck -10.1238 1.93208 4.15042
upperneck 17.4237 3.35361 -7.74065
head 7.19506 1.20254 -2.90264
rclavicle 1.63997e-014 -3.73715e-014
rhumerus 13.0204 -32.4663 11.3964
rradius 58.3877
rwrist 32.0982
rhand 28.7422 2.17533
rfingers 7.12502
rthumb 52.5727 -17.5839
lclavicle 1.63997e-014 -3.73715e-014
lhumerus -102.449 -58.6614 120.827
lradius 96.8126
lwrist 37.4841
lhand 7.46843 10.0771
lfingers 7.12502
lthumb 32.7215 37.1357
rfemur -14.6019 2.45637 22.5102
rtibia 19.7227
rfoot -11.3652 -9.17504
rtoes -14.6349
lfemur -17.8374 2.1966 -14.8001
ltibia 28.3112
lfoot -13.7228 9.26514
ltoes -20.764
1566
root 0.310069 17.9598 1.73874 12.7121 -3.72535 -4.07247
lowerback 1.39486 -1.7041 3.61533
upperback -9.33666 -1.71922 4.01522
thorax -10.7257 -0.948146 2.47732
lowerneck -10.325 1.92982 4.18058
upperneck 17.5847 3.3539 -7.76157
head 7.28409 1.19609 -2.91588
rclavicle -5.96354e-015 -1.19271e-014
rhumerus 13.162 -32.5497 11.2633
rradius 58.2813
rwrist 32.1849
rhand 28.7859 2.32475
rfingers 7.12502
rthumb 52.6121 -17.4101
lclavicle -5.96354e-015 -1.19271e-014
lhumerus -101.896 -58.5157 120.305
lradius 96.798
lwrist 37.2594
lhand 7.09667 9.87907
lfingers 7.12502
lthumb 32.3677 37.0106
rfemur -14.6517 2.54551 22.4801
rtibia 19.7593
rfoot -11.5592 -9.04693
rtoes -12.1025
lfemur -17.852 2.06612 -14.8201
ltibia 28.2308
lfoot -13.8207 9.36772
ltoes -19.6557
1567
root 0.318252 17.9693 1.74509 12.7367 -3.70259 -4.03547
lowerback 1.31872 -1.74871 3.56117
upperback -9.27336 -1.79165 4.0128
thorax -10.6041 -0.979197 2.50528
lowerneck -10.6794 1.9446 4.286
upperneck 17.8617 3.37433 -7.82009
head 7.44174 1.19596 -2.95346
rclavicle -5.82439e-014 3.81667e-014
rhumerus 13.3126 -32.6523 11.056
rradius 58.1809
rwrist 32.2837
rhand 28.7554 2.31142
rfingers 7.12502
rthumb 52.5845 -17.4405
lclavicle -5.82439e-014 3.81667e-014
lhumerus -101.395 -58.4183 119.809
lradius 96.7878
lwrist 37.3124
lhand 6.99103 9.85814
lfingers 7.12502
lthumb 32.2672 37.0101
rfemur -14.6785 2.66727 22.3429
rtibia 19.7683
rfoot -11.9216 -8.67427
rtoes -7.49979
lfemur -17.8184 1.84006 -14.9197
ltibia 28.1301
lfoot -13.86 9.61855
ltoes -19.3254
